<?xml version="1.0" encoding="UTF-8"?>
<!DOCTYPE svg PUBLIC "-//W3C//DTD SVG 1.1//EN" "http://www.w3.org/Graphics/SVG/1.1/DTD/svg11.dtd">
<!-- Creator: CorelDRAW 2021 (64 Bit) -->
<svg xmlns="http://www.w3.org/2000/svg" xml:space="preserve" width="180mm" height="133.261mm" version="1.1" style="shape-rendering:geometricPrecision; text-rendering:geometricPrecision; image-rendering:optimizeQuality; fill-rule:evenodd; clip-rule:evenodd"
viewBox="0 0 18000 13326.1"
 xmlns:xlink="http://www.w3.org/1999/xlink"
 xmlns:xodm="http://www.corel.com/coreldraw/odm/2003">
 <defs>
  <style type="text/css">
   <![CDATA[
    .fil0 {fill:#F7F7F8}
    .fil1 {fill:#01FF69}
   ]]>
  </style>
 </defs>
 <g id="Camada_x0020_1">
  <metadata id="CorelCorpID_0Corel-Layer"/>
  <polygon class="fil0" points="55.58,1808.56 27.76,1892.02 8930.38,1919.84 9319.88,2031.12 9570.26,2170.23 9987.57,2559.71 10237.95,3060.48 10293.6,3533.43 10182.32,4006.39 9959.75,4368.05 9514.62,4757.55 9292.05,4868.83 8874.74,4980.12 -0.07,4980.12 -0.07,10321.69 2030.85,10293.87 2030.85,6927.56 2086.49,6871.93 5703.18,6871.93 8679.99,10293.87 11295.14,10266.05 8373.97,6927.56 8429.61,6871.93 9013.85,6871.93 9598.08,6788.46 10543.98,6454.61 11100.4,6092.94 11545.53,5675.64 11851.56,5258.32 12074.12,4841.02 12268.87,4256.78 12352.33,3700.36 12352.33,3171.77 12268.87,2615.36 12129.77,2170.23 11851.56,1613.81 11489.89,1140.86 11016.94,723.55 10627.45,473.17 10154.5,250.6 9570.26,83.67 8902.56,0.21 1808.29,0.21 1669.18,55.85 "/>
  <polygon class="fil1" points="17972.11,2615.36 15551.71,2615.36 10293.6,8179.5 10293.6,8262.96 12101.94,10321.69 15941.2,10321.69 15996.84,10377.34 15996.84,13326.33 16080.3,13298.5 17916.47,11629.26 17916.47,8541.17 12519.26,8513.35 12463.61,8457.7 17999.93,2643.18 "/>
 </g>
</svg>
